# File created by Blade
# Date/Time:  Tue Apr 07 21:12:38 2015
# Frame Rate: 120.000 fps
#------------------------------------------------------
:FULLY-SPECIFIED
:DEGREES
784
root 12.578201 29.182745 8.786796 747.730696 -64.429416 -595.377804
Spine 9.058645 -17.920385 11.026363
Head -68.426606 -1.389566 8.892709
LeftShoulder -3.117599 -2.012562 44.575769
LeftArm 146.502630 -32.614711 -134.717798
LeftForeArm 30.733283 0.000000 116.623000
LeftHand -9.510076 0.000000 -3.167946
LeftHandThumb1 -26.253704 0.000000 33.147579
RightShoulder -12.465294 55.384072 -51.474284
RightArm 78.106085 50.574543 95.462732
RightForeArm -27.240834 -0.000000 121.100765
RightHand -5.970130 0.000000 14.744392
RightHandThumb1 -24.326973 -0.000000 -32.862282
LeftUpLeg -3.590941 -2.670515 4.584729
LeftLeg 23.701811 -0.000000 -0.000000
LeftFoot 35.455764 -2.265338 -2.569219
LeftToeBase 102.345817 -0.000000 -0.000000
RightUpLeg -114.808823 -23.947017 0.579191
RightLeg 14.152196 -0.000000 -0.000000
RightFoot -12.097718 -21.534459 5.713506
RightToeBase -18.882657 -0.000000 0.000000
785
root 12.369273 29.255167 8.820278 747.172020 -64.361480 -593.474053
Spine 8.305444 -18.126297 10.779228
Head -68.954677 -1.315215 8.910320
LeftShoulder -3.452257 -2.627241 44.451995
LeftArm 146.328305 -32.743973 -134.388674
LeftForeArm 30.944776 -0.000000 116.672527
LeftHand -9.571599 0.000000 -3.326364
LeftHandThumb1 -26.253704 0.000000 33.147579
RightShoulder -12.767464 55.513073 -51.639846
RightArm 78.425016 50.780211 95.307538
RightForeArm -27.135764 -0.000000 121.122721
RightHand -5.997846 0.000000 14.574948
RightHandThumb1 -24.326973 -0.000000 -32.862282
LeftUpLeg -2.839709 -2.707919 4.843655
LeftLeg 23.428869 -0.000000 -0.000000
LeftFoot 35.628621 -2.531851 -2.786561
LeftToeBase 102.274054 -0.000000 -0.000000
RightUpLeg -115.565360 -24.223726 1.171540
RightLeg 13.547836 -0.000000 -0.000000
RightFoot -12.502961 -21.715255 7.044271
RightToeBase -13.993092 -0.000000 0.000000
786
root 12.169550 29.319269 8.849261 746.592702 -64.268054 -591.574737
Spine 7.558740 -18.365300 10.513285
Head -69.485328 -1.224615 8.964292
LeftShoulder -3.725867 -2.506789 44.290648
LeftArm 146.878582 -32.428877 -134.421122
LeftForeArm 31.169313 -0.000000 116.695500
LeftHand -9.626488 -0.000000 -3.449519
LeftHandThumb1 -26.253704 0.000000 33.147579
RightShoulder -13.189534 55.783149 -51.897759
RightArm 78.556676 50.902330 95.113358
RightForeArm -26.925458 -0.000000 121.211523
RightHand -6.137480 -0.000000 14.755672
RightHandThumb1 -24.326973 -0.000000 -32.862282
LeftUpLeg -2.101302 -2.846622 5.118780
LeftLeg 23.181378 -0.000000 -0.000000
LeftFoot 35.542128 -2.717254 -2.969659
LeftToeBase 102.131179 -0.000000 -0.000000
RightUpLeg -116.416976 -24.422293 1.893304
RightLeg 13.200919 -0.000000 -0.000000
RightFoot -13.169955 -22.424080 8.343173
RightToeBase -10.310698 -0.000000 0.000000
787
root 11.972891 29.380362 8.874824 746.001577 -64.149611 -589.675079
Spine 6.811611 -18.589612 10.229428
Head -69.968208 -1.142803 9.013937
LeftShoulder -4.059467 -3.362091 44.305916
LeftArm 146.435480 -32.750751 -134.052341
LeftForeArm 31.373649 0.000000 116.789093
LeftHand -9.667682 -0.000000 -3.500749
LeftHandThumb1 -26.253704 0.000000 33.147579
RightShoulder -13.688200 56.005218 -52.156443
RightArm 78.769680 50.915902 95.017246
RightForeArm -26.574850 0.000000 121.276985
RightHand -6.186491 -0.000000 15.090030
RightHandThumb1 -24.326973 -0.000000 -32.862282
LeftUpLeg -1.468396 -3.082902 5.405223
LeftLeg 23.022535 -0.000000 -0.000000
LeftFoot 35.471603 -2.830307 -3.260921
LeftToeBase 101.928820 -0.000000 -0.000000
RightUpLeg -117.372607 -24.500027 2.801222
RightLeg 13.044242 -0.000000 -0.000000
RightFoot -13.651129 -23.025690 8.858470
RightToeBase -10.170574 -0.000000 0.000000
